<?xml version="1.0" encoding="UTF-8"?>
<svg id="Layer_2" data-name="Layer 2" xmlns="http://www.w3.org/2000/svg" viewBox="0 0 93.6 84.31">
  <defs>
    <style>
      .cls-1 {
        fill: #3e3fc3;
      }

      .cls-2 {
        fill: #2635a4;
      }

      .cls-3, .cls-4 {
        fill: #1e2b65;
      }

      .cls-4 {
        font-family: Aldhabi, Aldhabi;
        font-size: 34.92px;
      }
    </style>
  </defs>
  <g id="OBJECTS">
    <g>
      <path class="cls-1" d="M72.61,0s-17.77,2.65-26.69,11.6C37,2.65,19.23,0,19.23,0,10.61,3.81,0,14.92,0,14.92c0,0,20.39,3.98,24.37,5.64,3.98,1.66,21.55,10.44,21.55,10.44,0,0,17.57-8.79,21.55-10.44s24.37-5.64,24.37-5.64c0,0-10.61-11.11-19.23-14.92Z"/>
      <path class="cls-2" d="M90.63,18.07l1.21-3.15s-28.18-1.16-45.92,14.42C28.18,13.76,0,14.92,0,14.92l1.21,3.15,1.41.81-1.46.84.66,4.48,18.4,2.32,25.7,7.63,25.7-7.63,18.4-2.32.66-4.48-1.46-.84,1.41-.81Z"/>
      <path class="cls-3" d="M45.92,34.15C31.66,22.55,1.82,24.2,1.82,24.2l3.32,4.31c19.89-1.99,40.78,10.61,40.78,10.61,0,0,20.89-12.6,40.78-10.61l3.32-4.31s-29.84-1.66-44.1,9.95Z"/>
    </g>
    <text class="cls-4" transform="translate(50.65 58.7)"><tspan x="0" y="0">أجيال</tspan></text>
    <text class="cls-4" transform="translate(8.31 58.53)"><tspan x="0" y="0" xml:space="preserve"> القرآن</tspan></text>
  </g>
</svg>